HIERARCHY
ROOT joint_Root
{
	OFFSET 0.0 0.0 0.0
	CHANNELS 6 Xposition Yposition Zposition Zrotation Xrotation Yrotation 
	JOINT Hips
	{
		OFFSET -17.1583 93.1646 452.98
		CHANNELS 6 Xposition Yposition Zposition Zrotation Xrotation Yrotation 
		JOINT Spine
		{
			OFFSET 15.7357 0.0 0.0
			CHANNELS 6 Xposition Yposition Zposition Zrotation Xrotation Yrotation 
			JOINT Chest
			{
				OFFSET 8.98455 -0.406207 0.0
				CHANNELS 6 Xposition Yposition Zposition Zrotation Xrotation Yrotation 
				JOINT Neck
				{
					OFFSET 16.3773 0.0 0.0
					CHANNELS 6 Xposition Yposition Zposition Zrotation Xrotation Yrotation 
					JOINT Head
					{
						OFFSET 6.45672 0.0 0.0
						CHANNELS 6 Xposition Yposition Zposition Zrotation Xrotation Yrotation 
						End Site
						{
							OFFSET 0.0 0.0 0.0
						}
					}
				}
				JOINT Shoulder_L
				{
					OFFSET 12.9942 -0.242716 4.98039
					CHANNELS 6 Xposition Yposition Zposition Zrotation Xrotation Yrotation 
					JOINT UpperArm_L
					{
						OFFSET 5.34809 0.0 0.0
						CHANNELS 6 Xposition Yposition Zposition Zrotation Xrotation Yrotation 
						JOINT LowerArm_L
						{
							OFFSET 24.3286 1.87007e-05 0.0
							CHANNELS 6 Xposition Yposition Zposition Zrotation Xrotation Yrotation 
							JOINT Hand_L
							{
								OFFSET 22.2916 0.0 0.0
								CHANNELS 6 Xposition Yposition Zposition Zrotation Xrotation Yrotation 
								End Site
								{
									OFFSET 0.0 0.0 0.0
								}
							}
						}
					}
				}
				JOINT Shoulder_R
				{
					OFFSET 12.9945 -0.242716 -4.98039
					CHANNELS 6 Xposition Yposition Zposition Zrotation Xrotation Yrotation 
					JOINT UpperArm_R
					{
						OFFSET -5.34813 0.0 0.0
						CHANNELS 6 Xposition Yposition Zposition Zrotation Xrotation Yrotation 
						JOINT LowerArm_R
						{
							OFFSET -24.3289 0.000322201 0.0
							CHANNELS 6 Xposition Yposition Zposition Zrotation Xrotation Yrotation 
							JOINT Hand_R
							{
								OFFSET -22.2915 -0.000108084 0.0
								CHANNELS 6 Xposition Yposition Zposition Zrotation Xrotation Yrotation 
								End Site
								{
									OFFSET 0.0 0.0 0.0
								}
							}
						}
					}
				}
			}
		}
		JOINT UpperLeg_L
		{
			OFFSET -2.19248 -6.46944 0.0
			CHANNELS 6 Xposition Yposition Zposition Zrotation Xrotation Yrotation 
			JOINT LowerLeg_L
			{
				OFFSET 39.0811 0.0 -1.23785e-05
				CHANNELS 6 Xposition Yposition Zposition Zrotation Xrotation Yrotation 
				JOINT Foot_L
				{
					OFFSET 40.9854 0.0 -1.26872e-05
					CHANNELS 6 Xposition Yposition Zposition Zrotation Xrotation Yrotation 
					JOINT Toes_L
					{
						OFFSET 11.7543 0.0 0.0
						CHANNELS 6 Xposition Yposition Zposition Zrotation Xrotation Yrotation 
						End Site
						{
							OFFSET 0.0 0.0 0.0
						}
					}
				}
			}
		}
		JOINT UpperLeg_R
		{
			OFFSET -2.19251 6.46944 0.0
			CHANNELS 6 Xposition Yposition Zposition Zrotation Xrotation Yrotation 
			JOINT LowerLeg_R
			{
				OFFSET -39.0811 -0.00228153 -0.0401928
				CHANNELS 6 Xposition Yposition Zposition Zrotation Xrotation Yrotation 
				JOINT Foot_R
				{
					OFFSET -40.9854 0.0 0.0
					CHANNELS 6 Xposition Yposition Zposition Zrotation Xrotation Yrotation 
					JOINT Toes_R
					{
						OFFSET -11.7543 0.0 0.0
						CHANNELS 6 Xposition Yposition Zposition Zrotation Xrotation Yrotation 
						End Site
						{
							OFFSET 0.0 0.0 0.0
						}
					}
				}
			}
		}
	}
}
MOTION
Frames:	9
Frame Time:	0.0333333
0.000000 0.000000 0.000000 0.000000 0.000000 -0.000000 -2.603430 92.413100 -0.306349 86.586600 1.829690 3.589560 15.735700 0.000005 -0.000001 83.937800 86.005900 -81.772600 8.984550 -0.406207 -0.000000 0.200004 -0.986267 4.329300 16.377300 -0.000001 -0.000001 5.579100 2.156840 -1.713950 6.456720 -0.000001 -0.000000 -8.024490 1.547960 2.197900 12.994200 -0.242716 4.980390 -92.487700 8.063460 -72.790800 5.348090 -0.000007 -0.000001 -72.127800 28.049500 -3.740140 24.328600 0.000019 0.000005 13.526000 27.749800 -27.323100 22.291600 -0.000001 0.000005 -8.914530 5.096760 5.185910 12.994500 -0.242716 -4.980390 88.091300 5.690330 -71.422200 -5.348130 -0.000001 -0.000004 -68.785800 31.536800 -7.672260 -24.328900 0.000322 -0.000009 1.186250 4.511050 -14.762300 -22.291500 -0.000108 -0.000004 -1.451770 5.315460 -0.365312 -2.192480 -6.469440 -0.000000 -176.137000 1.029080 -1.983700 39.081100 -0.000007 -0.000012 0.279272 -0.637425 23.660000 40.985400 -0.000006 -0.000013 1.493490 4.627080 -73.832400 11.754300 -0.000000 0.000003 -0.001145 0.185080 -9.068890 -2.192510 6.469440 -0.000001 -173.769000 11.568700 -176.526000 -39.081100 -0.002282 -0.040193 0.063483 -0.233174 14.465200 -40.985400 0.000008 0.000006 2.020820 2.521070 -70.199100 -11.754300 -0.000006 -0.000006 -0.008701 0.261325 -5.959000
0.000000 0.000000 0.000000 0.000000 0.000000 -0.000000 -2.651430 92.443400 -0.405035 86.603500 1.827850 3.447480 15.735700 0.000005 -0.000001 83.466400 85.998200 -81.287300 8.984550 -0.406207 -0.000000 0.209482 -1.054060 4.357140 16.377300 -0.000001 -0.000001 5.175550 2.157130 -1.787130 6.456720 -0.000001 -0.000000 -8.241160 1.774060 1.658310 12.994200 -0.242716 4.980390 -92.438100 8.013670 -73.016200 5.348090 -0.000007 -0.000001 -71.065600 27.097100 -4.383430 24.328600 0.000019 0.000005 15.222600 29.116700 -29.214900 22.291600 -0.000001 0.000005 -12.159600 5.124890 4.534950 12.994500 -0.242716 -4.980390 88.180200 5.455640 -71.521600 -5.348130 -0.000001 -0.000004 -69.055400 31.456700 -7.772000 -24.328900 0.000322 -0.000009 1.200050 4.599630 -14.651900 -22.291500 -0.000108 -0.000004 -1.564740 5.316250 -0.388072 -2.192480 -6.469440 -0.000000 -176.102000 0.938394 -2.119820 39.081100 -0.000007 -0.000012 0.277449 -0.637496 23.520100 40.985400 -0.000006 -0.000013 1.477940 4.756340 -73.746600 11.754300 -0.000000 0.000003 -0.001202 0.185865 -9.036970 -2.192510 6.469440 -0.000001 -173.736000 11.580600 -176.670000 -39.081100 -0.002282 -0.040193 0.059854 -0.221412 14.320700 -40.985400 0.000008 0.000006 1.951730 2.594810 -70.068000 -11.754300 -0.000006 -0.000006 -0.008998 0.263657 -5.863680
0.000000 0.000000 0.000000 0.000000 0.000000 -0.000000 -2.695460 92.463000 -0.493398 86.654800 1.802660 3.338680 15.735700 0.000005 -0.000001 83.025900 85.986200 -80.846100 8.984550 -0.406207 -0.000000 0.227381 -1.117770 4.358960 16.377300 -0.000001 -0.000001 4.767760 2.199040 -1.988900 6.456720 -0.000001 -0.000000 -8.515510 1.887100 1.044540 12.994200 -0.242716 4.980390 -92.422600 8.009180 -73.109600 5.348090 -0.000007 -0.000001 -70.024100 24.229800 -4.330400 24.328600 0.000019 0.000005 17.837600 29.307000 -33.320200 22.291600 -0.000001 0.000005 -15.242400 5.110160 4.881800 12.994500 -0.242716 -4.980390 88.240100 5.299550 -71.600000 -5.348130 -0.000001 -0.000004 -69.202300 31.545900 -7.773920 -24.328900 0.000322 -0.000009 1.155680 4.407490 -14.721200 -22.291500 -0.000108 -0.000004 -1.496430 5.312920 -0.292976 -2.192480 -6.469440 -0.000000 -176.102000 0.798521 -2.251630 39.081100 -0.000007 -0.000012 0.272941 -0.629962 23.426000 40.985400 -0.000006 -0.000013 1.445890 4.848130 -73.630500 11.754300 -0.000000 0.000003 -0.001360 0.188028 -8.949060 -2.192510 6.469440 -0.000001 -173.734000 11.581400 -176.832000 -39.081100 -0.002282 -0.040193 0.059480 -0.220497 14.286400 -40.985400 0.000008 0.000006 1.966340 2.629580 -69.979700 -11.754300 -0.000006 -0.000006 -0.008778 0.261932 -5.934170
0.000000 0.000000 0.000000 0.000000 0.000000 -0.000000 -2.735430 92.508600 -0.565042 86.730200 1.689390 3.190610 15.735700 0.000005 -0.000001 83.169300 85.994400 -80.996400 8.984550 -0.406207 -0.000000 0.212913 -1.095690 4.344990 16.377300 -0.000001 -0.000001 4.372160 2.171280 -2.227030 6.456720 -0.000001 -0.000000 -8.889450 1.853530 0.196597 12.994200 -0.242716 4.980390 -92.433800 8.033360 -73.083700 5.348090 -0.000007 -0.000001 -68.774700 20.419300 -3.690760 24.328600 0.000019 0.000005 21.449200 28.167200 -39.770000 22.291600 -0.000001 0.000005 -16.947400 5.096820 5.186640 12.994500 -0.242716 -4.980390 88.264000 5.240000 -71.640900 -5.348130 -0.000001 -0.000004 -69.312100 31.371600 -7.679140 -24.328900 0.000322 -0.000009 1.169670 4.422280 -14.843900 -22.291500 -0.000108 -0.000004 -1.548600 5.313460 -0.308260 -2.192480 -6.469440 -0.000000 -176.086000 0.653107 -2.325110 39.081100 -0.000007 -0.000012 0.253241 -0.591332 23.183700 40.985400 -0.000006 -0.000013 1.058130 5.004100 -73.356800 11.754300 -0.000000 0.000003 -0.001079 0.184155 -9.106470 -2.192510 6.469440 -0.000001 -173.800000 11.595400 -176.923000 -39.081100 -0.002282 -0.040193 0.053825 -0.201179 14.089400 -40.985400 0.000008 0.000006 1.730940 2.811210 -69.811500 -11.754300 -0.000006 -0.000006 -0.008877 0.262716 -5.902140
0.000000 0.000000 0.000000 0.000000 0.000000 -0.000000 -2.789430 92.531000 -0.654700 86.762100 1.585920 2.987110 15.735700 0.000005 -0.000001 83.808800 86.046800 -81.642900 8.984550 -0.406207 -0.000000 0.116896 -0.996949 4.330030 16.377300 -0.000001 -0.000001 3.982990 2.081340 -2.533780 6.456720 -0.000001 -0.000000 -9.161210 1.640300 -0.769541 12.994200 -0.242716 4.980390 -92.411200 7.876290 -72.918900 5.348090 -0.000007 -0.000001 -67.651700 15.921200 -2.945210 24.328600 0.000019 0.000005 25.252700 25.938600 -47.159400 22.291600 -0.000001 0.000005 -16.238100 5.082950 5.499700 12.994500 -0.242716 -4.980390 88.273300 5.231500 -71.704900 -5.348130 -0.000001 -0.000004 -69.443600 31.148700 -7.377690 -24.328900 0.000322 -0.000009 1.169130 4.357250 -15.048400 -22.291500 -0.000108 -0.000004 -1.465500 5.315060 -0.353903 -2.192480 -6.469440 -0.000000 -176.085000 0.446291 -2.507120 39.081100 -0.000007 -0.000012 0.255098 -0.600011 23.033500 40.985400 -0.000006 -0.000013 1.174450 5.010370 -73.260900 11.754300 -0.000000 0.000003 -0.001215 0.186043 -9.029750 -2.192510 6.469440 -0.000001 -173.751000 11.571400 -177.131000 -39.081100 -0.002282 -0.040193 0.053697 -0.202603 13.960100 -40.985400 0.000008 0.000006 1.874640 2.920340 -69.699500 -11.754300 -0.000006 -0.000006 -0.008962 0.263381 -5.874980
0.000000 0.000000 0.000000 0.000000 0.000000 -0.000000 -2.833060 92.560300 -0.714644 86.811700 1.495340 2.825130 15.735700 0.000005 -0.000001 84.776000 86.109300 -82.622600 8.984550 -0.406207 -0.000000 0.002742 -0.854103 4.304200 16.377300 -0.000001 -0.000001 3.663960 1.917890 -2.952390 6.456720 -0.000001 -0.000000 -9.327450 1.313820 -1.904040 12.994200 -0.242716 4.980390 -92.376500 7.661410 -72.708700 5.348090 -0.000007 -0.000001 -66.736900 10.821700 -2.262040 24.328600 0.000019 0.000005 28.726200 22.772200 -54.768900 22.291600 -0.000001 0.000005 -14.221300 5.036120 6.537720 12.994500 -0.242716 -4.980390 88.275500 5.262000 -71.825700 -5.348130 -0.000001 -0.000004 -69.488600 31.023500 -7.015910 -24.328900 0.000322 -0.000009 1.173780 4.341470 -15.157900 -22.291500 -0.000108 -0.000004 -1.541400 5.314070 -0.325807 -2.192480 -6.469440 -0.000000 -176.071000 0.383942 -2.624690 39.081100 -0.000007 -0.000012 0.242704 -0.575282 22.874700 40.985400 -0.000006 -0.000013 0.952025 5.080220 -73.111000 11.754300 -0.000000 0.000003 -0.001287 0.187036 -8.989370 -2.192510 6.469440 -0.000001 -173.752000 11.549700 -177.270000 -39.081100 -0.002282 -0.040193 0.051917 -0.197383 13.828100 -40.985400 0.000008 0.000006 1.781340 3.000140 -69.610100 -11.754300 -0.000006 -0.000006 -0.009085 0.264333 -5.836070
0.000000 0.000000 0.000000 0.000000 0.000000 -0.000000 -2.890290 92.572800 -0.775099 86.822200 1.555630 2.678940 15.735700 0.000005 -0.000001 85.461500 86.167000 -83.309400 8.984550 -0.406207 -0.000000 -0.106226 -0.754219 4.301000 16.377300 -0.000001 -0.000001 3.360000 1.796380 -3.520980 6.456720 -0.000001 -0.000000 -9.399100 0.954975 -3.087380 12.994200 -0.242716 4.980390 -92.338300 7.463180 -72.548200 5.348090 -0.000007 -0.000001 -66.117200 5.197360 -1.947640 24.328600 0.000019 0.000005 31.691100 19.015200 -62.177700 22.291600 -0.000001 0.000005 -12.033100 4.962470 8.101950 12.994500 -0.242716 -4.980390 88.237000 5.411790 -71.925200 -5.348130 -0.000001 -0.000004 -69.318400 31.100100 -6.770540 -24.328900 0.000322 -0.000009 1.164920 4.332980 -15.076700 -22.291500 -0.000108 -0.000004 -1.565280 5.315880 -0.377451 -2.192480 -6.469440 -0.000000 -176.037000 0.371397 -2.810240 39.081100 -0.000007 -0.000012 0.241723 -0.574174 22.831200 40.985400 -0.000006 -0.000013 0.902618 5.135010 -73.001000 11.754300 -0.000000 0.000003 -0.001166 0.185369 -9.057120 -2.192510 6.469440 -0.000001 -173.691000 11.602900 -177.405000 -39.081100 -0.002282 -0.040193 0.050792 -0.194547 13.709600 -40.985400 0.000008 0.000006 1.826520 3.010260 -69.494600 -11.754300 -0.000006 -0.000006 -0.008795 0.262068 -5.928640
0.000000 0.000000 0.000000 0.000000 0.000000 -0.000000 -2.937270 92.581800 -0.815527 86.830100 1.679230 2.649300 15.735700 0.000005 -0.000001 85.885900 86.189000 -83.740300 8.984550 -0.406207 -0.000000 -0.147009 -0.694770 4.287680 16.377300 -0.000001 -0.000001 3.138000 1.687710 -4.160550 6.456720 -0.000001 -0.000000 -9.425440 0.674423 -4.380330 12.994200 -0.242716 4.980390 -92.303900 7.286230 -72.399900 5.348090 -0.000007 -0.000001 -65.807000 -0.422645 -2.112780 24.328600 0.000019 0.000005 33.777100 14.747900 -69.163100 22.291600 -0.000001 0.000005 -9.742170 4.879820 9.775050 12.994500 -0.242716 -4.980390 88.172700 5.662910 -72.083200 -5.348130 -0.000001 -0.000004 -69.096000 30.950300 -6.567530 -24.328900 0.000322 -0.000009 1.144000 4.324280 -14.846500 -22.291500 -0.000108 -0.000004 -1.481000 5.314490 -0.337820 -2.192480 -6.469440 -0.000000 -176.002000 0.434494 -2.885640 39.081100 -0.000007 -0.000012 0.239817 -0.570006 22.818200 40.985400 -0.000006 -0.000013 0.850582 5.206740 -72.979100 11.754300 -0.000000 0.000003 -0.001297 0.187174 -8.983750 -2.192510 6.469440 -0.000001 -173.662000 11.708100 -177.456000 -39.081100 -0.002282 -0.040193 0.049455 -0.189636 13.669800 -40.985400 0.000008 0.000006 1.700470 2.984110 -69.418600 -11.754300 -0.000006 -0.000006 -0.008796 0.262079 -5.928180
0.000000 0.000000 0.000000 0.000000 0.000000 -0.000000 -2.977680 92.583600 -0.844019 86.870700 1.861410 2.629690 15.735700 0.000005 -0.000001 86.509100 86.214700 -84.382300 8.984550 -0.406207 -0.000000 -0.194672 -0.608522 4.250190 16.377300 -0.000001 -0.000001 3.006910 1.594790 -4.898950 6.456720 -0.000001 -0.000000 -9.403720 0.393836 -5.768140 12.994200 -0.242716 4.980390 -92.236900 7.047120 -72.339700 5.348090 -0.000007 -0.000001 -66.198500 -6.087360 -2.716340 24.328600 0.000019 0.000005 35.246300 10.231100 -75.890500 22.291600 -0.000001 0.000005 -7.526920 4.826730 10.805200 12.994500 -0.242716 -4.980390 88.096400 5.910560 -72.112100 -5.348130 -0.000001 -0.000004 -68.853600 30.751800 -6.454340 -24.328900 0.000322 -0.000009 1.142790 4.413800 -14.544100 -22.291500 -0.000108 -0.000004 -1.435620 5.311140 -0.242152 -2.192480 -6.469440 -0.000000 -175.999000 0.511690 -2.951730 39.081100 -0.000007 -0.000012 0.237049 -0.563621 22.811200 40.985400 -0.000006 -0.000013 0.791526 5.325280 -72.900600 11.754300 -0.000000 0.000003 -0.001121 0.184745 -9.082520 -2.192510 6.469440 -0.000001 -173.642000 11.760200 -177.474000 -39.081100 -0.002282 -0.040193 0.050911 -0.196370 13.619600 -40.985400 0.000008 0.000006 1.856380 2.838270 -69.451300 -11.754300 -0.000006 -0.000006 -0.008993 0.263623 -5.865060
